<?xml version="1.0" encoding="utf-8"?>
<!-- Generator: Adobe Illustrator 24.0.3, SVG Export Plug-In . SVG Version: 6.00 Build 0)  -->
<svg version="1.1" id="ic_error_connection" shape-rendering="geometricPrecision"
	 xmlns="http://www.w3.org/2000/svg" xmlns:xlink="http://www.w3.org/1999/xlink" x="0px" y="0px" viewBox="0 0 24 24"
	 style="enable-background:new 0 0 24 24;" xml:space="preserve">
<style type="text/css">
	.st0{fill:none;}
	.st1{fill:#707070;}
</style>
<path id="Rectangle_4409" class="st0" d="M0,0h24v24H0V0z"/>
<g>
	<path class="st1" d="M12,16.9c-1.2,0-2.1,1-2.1,2.1c0,1.2,1,2.1,2.1,2.1c1.2,0,2.1-1,2.1-2.1C14.1,17.9,13.2,16.9,12,16.9z"/>
	<path class="st1" d="M14.8,13.7v2.2c0.2,0.2,0.4,0.4,0.5,0.6c0.3,0.4,0.9,0.4,1.3,0.1l0,0c0.3-0.3,0.3-0.8,0.1-1.2
		C16.2,14.7,15.5,14.1,14.8,13.7z"/>
	<path class="st1" d="M7.3,15.3c-0.3,0.4-0.3,0.9,0.1,1.2c0.4,0.4,1,0.4,1.3-0.1C8.9,16.2,9,16,9.2,15.8v-2.1
		C8.5,14.1,7.8,14.6,7.3,15.3z"/>
	<path class="st1" d="M4.6,12.5c-0.3,0.4-0.3,0.9,0,1.2c0.4,0.4,1,0.3,1.3-0.1c0.9-1,2-1.9,3.3-2.3V9.5C7.4,10,5.8,11.1,4.6,12.5z"
		/>
	<path class="st1" d="M14.8,9.5v1.9c1.3,0.5,2.4,1.3,3.3,2.4c0.3,0.4,0.9,0.4,1.3,0.1l0,0c0.3-0.3,0.3-0.9,0-1.2
		C18.2,11.1,16.6,10,14.8,9.5z"/>
	<path class="st1" d="M22.2,9.8c-1.9-2.2-4.5-3.8-7.5-4.5v1.8c2.4,0.6,4.5,1.9,6.1,3.8c0.3,0.4,0.9,0.4,1.3,0
		C22.5,10.7,22.5,10.2,22.2,9.8z"/>
	<path class="st1" d="M1.8,9.8c-0.3,0.3-0.3,0.9,0.1,1.2l0,0c0.4,0.4,1,0.3,1.3,0c1.6-1.8,3.7-3.2,6.1-3.8V5.3
		C6.3,6,3.7,7.5,1.8,9.8z"/>
	<path class="st1" d="M13.2,15v-1.8v-2.2V9.1V6.9V5.1V4c0-0.7-0.5-1.2-1.2-1.2S10.8,3.3,10.8,4v1.2v1.8v2.2v1.8v2.2v1.8
		c0.4-0.1,0.8-0.2,1.2-0.2C12.4,14.8,12.8,14.8,13.2,15z"/>
</g>
</svg>
