<?xml version="1.0" encoding="utf-8"?>
<!-- Generator: Adobe Illustrator 24.0.3, SVG Export Plug-In . SVG Version: 6.00 Build 0)  -->
<svg version="1.1" id="ic_unlocked" shape-rendering="geometricPrecision"
	 xmlns="http://www.w3.org/2000/svg" xmlns:xlink="http://www.w3.org/1999/xlink" x="0px" y="0px" viewBox="0 0 24 24"
	 style="enable-background:new 0 0 24 24;" xml:space="preserve">
<style type="text/css">
	.st0{fill:none;}
	.st1{fill:#707070;}
</style>
<path id="Rectangle_4444" class="st0" d="M0,0h24v24H0V0z"/>
<path class="st1" d="M18,9.8H7.9c0,0,0,0,0,0l0-1.3c0-2,1.2-3.8,3.1-4.3c2.1-0.5,4.1,0.5,4.9,2.4C16.1,7,16.7,7.3,17.2,7
	c0.5-0.2,0.7-0.8,0.5-1.3c-1.2-2.6-4-4.1-6.9-3.6c-2.9,0.6-5,3.4-5,6.4l0,1.3c0,0,0,0,0,0c-1.1,0.1-1.9,0.9-1.9,2v8.3
	c0,1.1,0.9,2,2,2H18c1.1,0,2-0.9,2-2v-8.3C20.1,10.7,19.2,9.8,18,9.8z M18,20.2H6c0,0,0,0,0,0v-8.3c0,0,0,0,0,0H18c0,0,0,0,0,0
	L18,20.2C18.1,20.2,18.1,20.2,18,20.2z"/>
</svg>
