<?xml version="1.0" encoding="utf-8"?>
<!-- Generator: Adobe Illustrator 24.1.1, SVG Export Plug-In . SVG Version: 6.00 Build 0)  -->
<!DOCTYPE svg PUBLIC "-//W3C//DTD SVG 1.1//EN" "http://www.w3.org/Graphics/SVG/1.1/DTD/svg11.dtd" [
	<!ENTITY ns_extend "http://ns.adobe.com/Extensibility/1.0/">
	<!ENTITY ns_ai "http://ns.adobe.com/AdobeIllustrator/10.0/">
	<!ENTITY ns_graphs "http://ns.adobe.com/Graphs/1.0/">
	<!ENTITY ns_vars "http://ns.adobe.com/Variables/1.0/">
	<!ENTITY ns_imrep "http://ns.adobe.com/ImageReplacement/1.0/">
	<!ENTITY ns_sfw "http://ns.adobe.com/SaveForWeb/1.0/">
	<!ENTITY ns_custom "http://ns.adobe.com/GenericCustomNamespace/1.0/">
	<!ENTITY ns_adobe_xpath "http://ns.adobe.com/XPath/1.0/">
]>
<svg version="1.1" id="Layer_1" xmlns:x="&ns_extend;" xmlns:i="&ns_ai;" xmlns:graph="&ns_graphs;"
	 xmlns="http://www.w3.org/2000/svg" xmlns:xlink="http://www.w3.org/1999/xlink" x="0px" y="0px" viewBox="0 0 24 24"
	 style="enable-background:new 0 0 24 24;" xml:space="preserve">
<style type="text/css">
	.st0{fill:#FFFFFF;}
</style>
<metadata>
	<sfw  xmlns="&ns_sfw;">
		<slices></slices>
		<sliceSourceBounds  bottomLeftOrigin="true" height="21.1" width="21.1" x="1.45" y="-22.55"></sliceSourceBounds>
		<optimizationSettings>
			<targetSettings  fileFormat="PNG24Format" targetSettingsID="0">
				<PNG24Format  filtered="false" interlaced="true" matteColor="#FFFFFF" noMatteColor="false" transparency="true">
					</PNG24Format>
			</targetSettings>
		</optimizationSettings>
	</sfw>
</metadata>
<g>
	<path class="st0" d="M12,1.45C6.18,1.45,1.45,6.18,1.45,12c0,5.82,4.73,10.55,10.55,10.55c5.82,0,10.55-4.73,10.55-10.55
		C22.55,6.18,17.82,1.45,12,1.45z M12.84,20.27v-1.32c-0.26,0.09-0.55,0.14-0.84,0.14c-0.29,0-0.58-0.05-0.84-0.14v1.32
		C6.97,19.85,3.69,16.3,3.69,12c0-4.58,3.73-8.31,8.31-8.31c4.58,0,8.31,3.73,8.31,8.31C20.31,16.3,17.03,19.85,12.84,20.27z"/>
	<path class="st0" d="M12,14.86C12,14.86,12,14.86,12,14.86c-0.9,0-1.63,0.73-1.63,1.63c0,0.9,0.73,1.63,1.63,1.63c0,0,0,0,0,0
		c0.9,0,1.63-0.73,1.63-1.63C13.63,15.59,12.9,14.86,12,14.86z"/>
	<path class="st0" d="M12,13.88C12,13.88,12,13.88,12,13.88c0.29,0,0.57,0.05,0.84,0.14V9.84C12.84,9.37,12.47,9,12,9
		s-0.84,0.38-0.84,0.84v4.19C11.42,13.93,11.71,13.88,12,13.88L12,13.88z"/>
	<path class="st0" d="M9.2,13.01V7.32c0-0.47-0.38-0.84-0.84-0.84S7.52,6.86,7.52,7.32v6.04c0,0.03,0,0.06,0,0.08
		c0,0.01,0,0.02,0.01,0.04c0,0.02,0,0.03,0.01,0.05c0,0.01,0.01,0.03,0.01,0.04c0,0.01,0.01,0.03,0.01,0.04
		c0,0.01,0.01,0.03,0.01,0.04c0,0.01,0.01,0.03,0.01,0.04c0.01,0.01,0.01,0.02,0.02,0.04c0.01,0.01,0.01,0.03,0.02,0.04
		c0.01,0.01,0.01,0.02,0.02,0.03c0.01,0.01,0.01,0.02,0.02,0.04c0.01,0.01,0.02,0.03,0.03,0.04c0.01,0.01,0.01,0.02,0.02,0.03
		c0.02,0.02,0.04,0.04,0.06,0.06l1.75,1.75c0.18-0.56,0.54-1.04,1.01-1.37L9.2,13.01z"/>
	<path class="st0" d="M15.64,6.48c-0.47,0-0.84,0.38-0.84,0.84v5.69l-1.33,1.33c0.13,0.09,0.26,0.19,0.37,0.31
		c0.3,0.3,0.52,0.66,0.64,1.06l1.75-1.75c0,0,0,0,0,0c0.02-0.02,0.04-0.04,0.05-0.06c0.01-0.01,0.02-0.02,0.02-0.03
		c0.01-0.01,0.02-0.02,0.03-0.03c0.01-0.01,0.02-0.03,0.02-0.04c0.01-0.01,0.01-0.02,0.02-0.03c0.01-0.01,0.01-0.03,0.02-0.04
		c0.01-0.01,0.01-0.02,0.02-0.04c0.01-0.01,0.01-0.03,0.01-0.04c0-0.01,0.01-0.03,0.01-0.04c0-0.01,0.01-0.03,0.01-0.04
		c0-0.01,0.01-0.03,0.01-0.04c0-0.01,0-0.03,0.01-0.04c0-0.01,0-0.02,0.01-0.04c0-0.03,0-0.06,0-0.08c0,0,0,0,0,0V7.32
		C16.48,6.86,16.11,6.48,15.64,6.48z"/>
</g>
</svg>
