<?xml version="1.0" encoding="utf-8"?>
<!-- Generator: Adobe Illustrator 24.1.1, SVG Export Plug-In . SVG Version: 6.00 Build 0)  -->
<!DOCTYPE svg PUBLIC "-//W3C//DTD SVG 1.1//EN" "http://www.w3.org/Graphics/SVG/1.1/DTD/svg11.dtd" [
	<!ENTITY ns_extend "http://ns.adobe.com/Extensibility/1.0/">
	<!ENTITY ns_ai "http://ns.adobe.com/AdobeIllustrator/10.0/">
	<!ENTITY ns_graphs "http://ns.adobe.com/Graphs/1.0/">
	<!ENTITY ns_vars "http://ns.adobe.com/Variables/1.0/">
	<!ENTITY ns_imrep "http://ns.adobe.com/ImageReplacement/1.0/">
	<!ENTITY ns_sfw "http://ns.adobe.com/SaveForWeb/1.0/">
	<!ENTITY ns_custom "http://ns.adobe.com/GenericCustomNamespace/1.0/">
	<!ENTITY ns_adobe_xpath "http://ns.adobe.com/XPath/1.0/">
]>
<svg version="1.1"
	 id="ic_error_sync" xmlns:x="&ns_extend;" xmlns:i="&ns_ai;" xmlns:graph="&ns_graphs;" shape-rendering="geometricPrecision"
	 xmlns="http://www.w3.org/2000/svg" xmlns:xlink="http://www.w3.org/1999/xlink" x="0px" y="0px" viewBox="0 0 24 24"
	 style="enable-background:new 0 0 24 24;" xml:space="preserve">
<style type="text/css">
	.st0{fill:#707070;}
</style>
<metadata>
	<sfw  xmlns="&ns_sfw;">
		<slices></slices>
		<sliceSourceBounds  bottomLeftOrigin="true" height="18.81" width="19.01" x="2.49" y="2.6"></sliceSourceBounds>
	</sfw>
</metadata>
<g>
	<path class="st0" d="M4.82,3.26C4.58,3.03,4.21,2.91,3.84,2.91S3.1,3.03,2.86,3.26c-0.49,0.49-0.5,1.34,0,1.95l15.7,15.7
		c0.24,0.24,0.59,0.37,0.98,0.37c0.38,0,0.74-0.14,0.98-0.37c0.49-0.49,0.5-1.34,0.02-1.93L4.82,3.26z"/>
	<path class="st0" d="M19.98,12.33c-0.59,0-1.09,0.39-1.18,0.99c-0.11,0.47-0.17,0.83-0.31,1.22c-0.08,0.24-0.2,0.46-0.31,0.68
		l1.83,1.83c0.34-0.57,0.63-1.17,0.84-1.8c0.19-0.57,0.31-1.13,0.31-1.73C21.17,12.92,20.67,12.33,19.98,12.33z"/>
	<path class="st0" d="M14.16,18.65c-2.36,0.7-4.91,0.05-6.89-1.72c-0.04-0.05-0.07-0.09-0.1-0.13l0.79,0.28
		c0.52,0.18,1.09-0.09,1.28-0.61c0.04-0.11,0.06-0.22,0.06-0.33c0-0.41-0.25-0.8-0.67-0.94c0,0-3.41-1.34-3.42-1.34
		c-0.52-0.18-1.09,0.09-1.28,0.61l-1.21,3.41c-0.18,0.52,0.09,1.09,0.61,1.28c0.11,0.04,0.22,0.06,0.33,0.06
		c0.41,0,0.8-0.25,0.94-0.67l0.19-0.53c0.29,0.31,0.56,0.54,0.56,0.54c1.95,1.87,4.4,2.86,6.87,2.86c0.88,0,1.77-0.13,2.64-0.38
		c0.58-0.17,1.14-0.42,1.68-0.7l-1.86-1.86C14.52,18.53,14.34,18.6,14.16,18.65z"/>
	<path class="st0" d="M5.38,10.68c0.11-0.47,0.17-0.83,0.31-1.22c0,0,0,0,0-0.01L3.82,7.59c-0.19,0.38-0.36,0.77-0.5,1.17
		c-0.19,0.57-0.31,1.13-0.31,1.73c0,0.59,0.49,1.18,1.18,1.18C4.79,11.67,5.28,11.28,5.38,10.68z"/>
	<path class="st0" d="M20.84,4.86c-0.11-0.04-0.22-0.06-0.33-0.06c-0.41,0-0.8,0.25-0.94,0.67l-0.19,0.53
		c-0.29-0.31-0.56-0.54-0.56-0.54c-1.95-1.87-4.4-2.86-6.87-2.86c-0.88,0-1.77,0.13-2.64,0.38c-0.7,0.21-1.37,0.5-2,0.86
		c-0.1,0.06-0.2,0.14-0.3,0.2l1.81,1.81c0.14-0.07,0.27-0.16,0.42-0.22c0.25-0.11,0.51-0.21,0.78-0.28c2.36-0.7,4.91-0.05,6.89,1.72
		c0.04,0.05,0.07,0.09,0.1,0.13l-0.79-0.28c-0.52-0.18-1.09,0.09-1.28,0.61c-0.04,0.11-0.06,0.22-0.06,0.33
		c0,0.41,0.25,0.8,0.67,0.94c0,0,3.41,1.34,3.42,1.34c0.52,0.18,1.09-0.09,1.28-0.61l1.21-3.41C21.63,5.62,21.36,5.04,20.84,4.86z"
		/>
</g>
</svg>
