<?xml version="1.0" standalone="no"?>
<!DOCTYPE svg PUBLIC "-//W3C//DTD SVG 20010904//EN"
 "http://www.w3.org/TR/2001/REC-SVG-20010904/DTD/svg10.dtd">
<svg version="1.0" xmlns="http://www.w3.org/2000/svg"
 width="128.000000pt" height="128.000000pt" viewBox="0 0 128.000000 128.000000"
 preserveAspectRatio="xMidYMid meet">
<metadata>
Created by potrace 1.15, written by Peter Selinger 2001-2017
</metadata>
<g transform="translate(0.000000,128.000000) scale(0.100000,-0.100000)"
fill="#7c7687" stroke="none">
<path d="M590 714 c-272 -218 -508 -408 -524 -424 -23 -22 -27 -34 -22 -54 9
-35 50 -55 78 -37 23 15 831 660 956 763 51 43 82 76 82 88 0 25 -34 60 -58
60 -9 0 -240 -178 -512 -396z"/>
<path d="M130 655 c0 -231 2 -275 14 -268 7 4 34 24 59 43 l46 35 1 73 0 72
88 0 87 0 83 66 82 66 0 94 0 94 -65 0 -65 0 0 -105 0 -105 -105 0 -105 0 0
105 0 105 -60 0 -60 0 0 -275z"/>
<path d="M990 864 c-25 -19 -46 -39 -47 -42 -2 -4 10 -14 26 -24 43 -24 62
-60 68 -126 4 -46 1 -69 -15 -106 -26 -57 -64 -76 -152 -76 l-60 0 0 110 c0
61 -3 110 -6 110 -7 0 -106 -80 -116 -95 -4 -5 -8 -61 -8 -122 l0 -113 138 0
c174 0 224 13 279 73 52 56 68 103 68 202 0 100 -22 161 -76 209 -21 20 -42
36 -47 36 -4 0 -27 -16 -52 -36z"/>
</g>
</svg>
