<?xml version="1.0" encoding="utf-8"?>
<!-- Generator: Adobe Illustrator 24.1.1, SVG Export Plug-In . SVG Version: 6.00 Build 0)  -->
<!DOCTYPE svg PUBLIC "-//W3C//DTD SVG 1.1//EN" "http://www.w3.org/Graphics/SVG/1.1/DTD/svg11.dtd" [
	<!ENTITY ns_extend "http://ns.adobe.com/Extensibility/1.0/">
	<!ENTITY ns_ai "http://ns.adobe.com/AdobeIllustrator/10.0/">
	<!ENTITY ns_graphs "http://ns.adobe.com/Graphs/1.0/">
	<!ENTITY ns_vars "http://ns.adobe.com/Variables/1.0/">
	<!ENTITY ns_imrep "http://ns.adobe.com/ImageReplacement/1.0/">
	<!ENTITY ns_sfw "http://ns.adobe.com/SaveForWeb/1.0/">
	<!ENTITY ns_custom "http://ns.adobe.com/GenericCustomNamespace/1.0/">
	<!ENTITY ns_adobe_xpath "http://ns.adobe.com/XPath/1.0/">
]>
<svg version="1.1" id="ic-transaction-staked" xmlns:x="&ns_extend;" xmlns:i="&ns_ai;" xmlns:graph="&ns_graphs;"
	 xmlns="http://www.w3.org/2000/svg" xmlns:xlink="http://www.w3.org/1999/xlink" x="0px" y="0px" viewBox="0 0 24 24"
	 style="enable-background:new 0 0 24 24;" xml:space="preserve">
<style type="text/css">
	.st0{fill:#707070;}
	.st1{fill-rule:evenodd;clip-rule:evenodd;fill:#707070;}
</style>
<metadata>
	<sfw  xmlns="&ns_sfw;">
		<slices></slices>
		<sliceSourceBounds  bottomLeftOrigin="true" height="23.01" width="51.625" x="1.25" y="0.4"></sliceSourceBounds>
	</sfw>
</metadata>
<path class="st0" d="M22.179,11.389h-1.196l0.686-0.686c0.223-0.223,0.223-0.584,0-0.807c-0.223-0.223-0.584-0.223-0.807,0
	l-1.494,1.493H17.37c0,0,1.5-1.5,1.506-1.506c0.14-0.14,0.222-0.341,0.222-0.539c0-0.349-0.238-0.632-0.557-0.725
	c-0.061-0.025-0.128-0.039-0.216-0.041h-2.153l1.413-1.413h2.112c0.316,0,0.571-0.255,0.571-0.571c0-0.316-0.255-0.571-0.571-0.571
	h-0.97l0.846-0.846c0.223-0.223,0.223-0.584,0-0.807c-0.223-0.223-0.584-0.223-0.807,0L17.92,5.216v-0.97
	c0-0.316-0.255-0.571-0.571-0.571c-0.316,0-0.571,0.255-0.571,0.571v2.112l-1.414,1.414c0-0.573,0-1.145,0-1.718
	c0-0.218,0.041-0.47-0.049-0.675C15.11,4.911,14.446,4.715,14.061,5.1l-1.531,1.53V4.632l1.494-1.494
	c0.223-0.223,0.223-0.584,0-0.807c-0.223-0.223-0.584-0.223-0.807,0l-0.687,0.687V1.821c0-0.316-0.255-0.571-0.571-0.571
	c-0.316,0-0.571,0.255-0.571,0.571v1.196l-0.686-0.686c-0.223-0.223-0.584-0.223-0.807,0c-0.223,0.222-0.223,0.584,0,0.807
	l1.493,1.494V6.63L9.917,5.158c-0.141-0.159-0.34-0.264-0.569-0.264c-0.397,0-0.769,0.365-0.769,0.77v2.164L7.166,6.415V4.303
	c0-0.316-0.255-0.571-0.571-0.571c-0.316,0-0.571,0.255-0.571,0.571v0.971L5.178,4.427c-0.223-0.223-0.584-0.223-0.807,0
	c-0.223,0.223-0.223,0.584,0,0.807L5.217,6.08H4.246c-0.316,0-0.571,0.255-0.571,0.571S3.93,7.222,4.246,7.222h2.113l1.413,1.413
	c-0.156,0-1.801,0-2.011-0.001c-0.165,0-0.317,0.003-0.468,0.078C5.039,8.838,4.88,9.102,4.88,9.385
	c0,0.255,0.145,0.477,0.319,0.652c0.119,0.12,0.239,0.24,0.359,0.36c0.265,0.265,1.073,1.073,1.073,1.073H4.633L3.139,9.976
	c-0.223-0.223-0.584-0.223-0.807,0c-0.223,0.223-0.223,0.584,0,0.807l0.686,0.686H1.821c-0.316,0-0.571,0.255-0.571,0.571
	c0,0.316,0.255,0.571,0.571,0.571h1.197l-0.686,0.686c-0.223,0.223-0.223,0.584,0,0.807c0.111,0.111,0.258,0.167,0.404,0.167
	c0.146,0,0.292-0.056,0.404-0.167l1.494-1.493h1.998c-0.397,0.397-0.793,0.794-1.19,1.19c-0.156,0.156-0.356,0.305-0.449,0.508
	c-0.094,0.206-0.105,0.453-0.007,0.658c0.095,0.198,0.251,0.301,0.441,0.394c0.21,0.102,0.502,0.06,0.731,0.06
	c0.309,0,0.618,0,0.927,0c0.248,0,0.496,0,0.744,0l-1.413,1.413H4.303c-0.316,0-0.571,0.255-0.571,0.571
	c0,0.316,0.255,0.571,0.571,0.571h0.971l-0.846,0.846c-0.223,0.223-0.223,0.584,0,0.807c0.111,0.111,0.258,0.167,0.404,0.167
	s0.292-0.056,0.404-0.167l0.846-0.846v0.971c0,0.316,0.255,0.571,0.571,0.571s0.571-0.255,0.571-0.571v-2.113l1.413-1.413v2.164
	c0,0.382,0.405,0.713,0.769,0.713c0.357,0,0.575-0.247,0.806-0.478c0.23-0.23,0.46-0.46,0.69-0.69c0.133-0.133,0.266-0.266,0.4-0.4
	c0.024-0.024,0.169-0.134,0.169-0.169v1.999l-1.493,1.493c-0.223,0.223-0.223,0.584,0,0.807c0.111,0.111,0.258,0.167,0.404,0.167
	c0.146,0,0.292-0.056,0.404-0.167l0.686-0.686v1.196c0,0.316,0.255,0.571,0.571,0.571c0.316,0,0.571-0.255,0.571-0.571v-1.197
	l0.687,0.686c0.111,0.111,0.258,0.167,0.404,0.167c0.146,0,0.292-0.056,0.404-0.167c0.223-0.223,0.223-0.584,0-0.807l-1.494-1.493
	v-1.999c0.367,0.367,0.734,0.734,1.101,1.1c0.279,0.279,0.5,0.595,0.933,0.606c0.459,0.012,0.779-0.414,0.776-0.842
	c-0.002-0.288,0-0.576,0-0.863c0-0.4,0-0.799,0-1.199l1.414,1.413v2.112c0,0.316,0.255,0.571,0.571,0.571s0.571-0.255,0.571-0.571
	v-0.971l0.846,0.846c0.111,0.111,0.258,0.167,0.404,0.167s0.292-0.056,0.404-0.167c0.223-0.223,0.223-0.584,0-0.807l-0.846-0.846
	h0.97c0.316,0,0.571-0.255,0.571-0.571s-0.255-0.571-0.571-0.571h-2.112l-1.413-1.413c0.527,0,1.054,0,1.582,0
	c0.194,0,0.388,0,0.582,0c0.086,0,0.165-0.021,0.237-0.055c0.486-0.225,0.661-0.857,0.263-1.256l-1.524-1.523h1.999l1.494,1.493
	c0.111,0.111,0.258,0.167,0.404,0.167c0.146,0,0.292-0.056,0.404-0.167c0.223-0.223,0.223-0.584,0-0.807l-0.686-0.686h1.196
	c0.316,0,0.571-0.255,0.571-0.571C22.75,11.644,22.495,11.389,22.179,11.389z M12.531,8.245l1.692-1.692v2.36l-1.145,1.145
	c-0.171-0.095-0.353-0.171-0.547-0.219V8.245z M9.72,6.576l1.669,1.669v1.619c-0.192,0.055-0.373,0.132-0.54,0.234L9.72,8.97V6.576z
	 M6.553,9.777h2.36l1.146,1.146c-0.095,0.171-0.171,0.352-0.219,0.547H8.245L6.553,9.777z M8.97,14.28H6.577l1.668-1.669h1.62
	c0.055,0.192,0.132,0.373,0.234,0.54L8.97,14.28z M11.469,15.755l-1.692,1.692v-2.36l1.146-1.146
	c0.171,0.095,0.352,0.171,0.547,0.219V15.755z M12,13.09c-0.601,0-1.089-0.489-1.089-1.09s0.488-1.09,1.089-1.09
	s1.09,0.489,1.09,1.09S12.601,13.09,12,13.09z M14.28,17.423l-1.669-1.668v-1.619c0.192-0.055,0.373-0.132,0.541-0.234l1.128,1.128
	V17.423z M17.447,14.223h-2.36l-1.145-1.145c0.095-0.171,0.171-0.353,0.219-0.547h1.594L17.447,14.223z M15.755,11.389h-1.619
	c-0.055-0.192-0.133-0.373-0.234-0.541L15.03,9.72h2.394L15.755,11.389z"/>
<g>
	<path class="st1" d="M52.863,11.678c-1.076-2.535-3.306-5.35-5.313-7.208c-1.554-1.439-3.389-2.598-5.103-3.838
		c-0.165-0.119-0.388,0.037-0.331,0.233l0.442,1.534c0.015,0.054,0.053,0.099,0.101,0.126c0.403,0.225,0.641,0.446,1.005,0.721
		c0.35,0.265,0.795,0.623,1.115,0.926c0.521,0.493,0.67,1.189,0.345,1.842C44.58,7.11,43.457,8.12,42.647,9.03
		c-1.185,1.332-2.432,2.607-3.695,3.865c-1.263-1.259-2.51-2.533-3.695-3.865c-0.81-0.91-1.933-1.92-2.477-3.015
		c-0.325-0.653-0.175-1.349,0.345-1.842c0.32-0.303,0.765-0.661,1.115-0.926c0.364-0.276,0.602-0.496,1.005-0.721
		c0.049-0.027,0.086-0.072,0.101-0.126l0.442-1.534c0.056-0.196-0.166-0.352-0.331-0.233c-1.714,1.24-3.549,2.399-5.103,3.838
		c-2.007,1.858-4.237,4.673-5.313,7.208c-0.099,0.232,0.477-0.355,0.629-0.557c1.141-1.512,3.179-3.846,3.947-3.839
		c0.995,0.009,1.683,0.792,2.369,1.407c1.958,1.753,3.796,3.64,5.6,5.56c-1.225,1.2-2.457,2.394-3.668,3.607
		c-1.302,1.304-2.616,2.597-3.899,3.92c-0.379,0.391-0.373,0.838,0.014,1.219c0.106,0.105,0.213,0.208,0.321,0.312
		c0.415,0.399,1.075,0.392,1.474-0.023c1.299-1.349,2.573-2.708,3.852-4.061c1.096-1.16,2.182-2.336,3.271-3.51
		c1.089,1.174,2.175,2.35,3.271,3.51c1.279,1.354,2.553,2.712,3.852,4.061c0.399,0.415,1.059,0.422,1.474,0.023
		c0.108-0.103,0.215-0.207,0.321-0.312c0.386-0.381,0.393-0.828,0.014-1.219c-1.283-1.323-2.597-2.616-3.899-3.92
		c-1.211-1.213-2.443-2.407-3.668-3.607c1.805-1.92,3.643-3.807,5.6-5.56c0.686-0.615,1.374-1.398,2.369-1.407
		c0.768-0.007,2.806,2.327,3.947,3.839C52.386,11.323,52.962,11.91,52.863,11.678z"/>
	<path class="st0" d="M42.395,5.785h-0.405l0.232-0.232c0.075-0.075,0.075-0.198,0-0.273c-0.075-0.075-0.198-0.075-0.273,0
		l-0.505,0.505h-0.676c0,0,0.507-0.507,0.51-0.509c0.047-0.047,0.075-0.115,0.075-0.182c0-0.118-0.08-0.214-0.188-0.245
		c-0.021-0.008-0.043-0.013-0.073-0.014h-0.728l0.478-0.478h0.714c0.107,0,0.193-0.086,0.193-0.193S41.663,3.97,41.556,3.97h-0.328
		l0.286-0.286c0.075-0.075,0.075-0.198,0-0.273s-0.198-0.075-0.273,0l-0.286,0.286V3.369c0-0.107-0.086-0.193-0.193-0.193
		s-0.193,0.086-0.193,0.193v0.714L40.09,4.561c0-0.194,0-0.387,0-0.581c0-0.074,0.014-0.159-0.017-0.228
		c-0.069-0.158-0.294-0.224-0.424-0.094l-0.518,0.518V3.499l0.505-0.505c0.075-0.075,0.075-0.198,0-0.273
		c-0.075-0.075-0.198-0.075-0.273,0l-0.232,0.232V2.548c0-0.107-0.086-0.193-0.193-0.193s-0.193,0.086-0.193,0.193v0.405
		l-0.232-0.232c-0.075-0.075-0.198-0.075-0.273,0c-0.075,0.075-0.075,0.198,0,0.273l0.505,0.505v0.676l-0.498-0.498
		c-0.048-0.054-0.115-0.089-0.193-0.089c-0.134,0-0.26,0.123-0.26,0.261V4.58l-0.478-0.478V3.388c0-0.107-0.086-0.193-0.193-0.193
		c-0.107,0-0.193,0.086-0.193,0.193v0.328L36.644,3.43c-0.075-0.075-0.198-0.075-0.273,0s-0.075,0.198,0,0.273l0.286,0.286h-0.328
		c-0.107,0-0.193,0.086-0.193,0.193s0.086,0.193,0.193,0.193h0.715l0.478,0.478c-0.053,0-0.609,0-0.68,0
		c-0.056,0-0.107,0.001-0.158,0.026c-0.086,0.043-0.139,0.132-0.139,0.228c0,0.086,0.049,0.161,0.108,0.22
		c0.04,0.04,0.081,0.081,0.121,0.122c0.09,0.09,0.363,0.363,0.363,0.363H36.46l-0.505-0.505c-0.075-0.075-0.198-0.075-0.273,0
		c-0.075,0.075-0.075,0.198,0,0.273l0.232,0.232h-0.405c-0.107,0-0.193,0.086-0.193,0.193s0.086,0.193,0.193,0.193h0.405
		L35.682,6.43c-0.075,0.075-0.075,0.198,0,0.273c0.038,0.038,0.087,0.057,0.137,0.057c0.049,0,0.099-0.019,0.137-0.057l0.505-0.505
		h0.676c-0.134,0.134-0.268,0.268-0.402,0.403c-0.053,0.053-0.12,0.103-0.152,0.172c-0.032,0.07-0.035,0.153-0.002,0.223
		c0.032,0.067,0.085,0.102,0.149,0.133c0.071,0.035,0.17,0.02,0.247,0.02c0.105,0,0.209,0,0.314,0c0.084,0,0.168,0,0.252,0
		l-0.478,0.478h-0.715c-0.107,0-0.193,0.086-0.193,0.193s0.086,0.193,0.193,0.193h0.328l-0.286,0.286
		c-0.075,0.075-0.075,0.198,0,0.273c0.038,0.038,0.087,0.057,0.137,0.057c0.049,0,0.099-0.019,0.137-0.057l0.286-0.286v0.328
		c0,0.107,0.086,0.193,0.193,0.193c0.107,0,0.193-0.086,0.193-0.193V7.9l0.478-0.478v0.732c0,0.129,0.137,0.241,0.26,0.241
		c0.121,0,0.195-0.084,0.273-0.162C38.424,8.156,38.502,8.078,38.58,8c0.045-0.045,0.09-0.09,0.135-0.135
		c0.008-0.008,0.057-0.045,0.057-0.057v0.676l-0.505,0.505c-0.075,0.075-0.075,0.198,0,0.273c0.038,0.038,0.087,0.057,0.137,0.057
		s0.099-0.019,0.137-0.057l0.232-0.232v0.405c0,0.107,0.086,0.193,0.193,0.193c0.107,0,0.193-0.086,0.193-0.193V9.03l0.232,0.232
		c0.038,0.038,0.087,0.057,0.137,0.057c0.049,0,0.099-0.019,0.137-0.057c0.075-0.075,0.075-0.198,0-0.273l-0.505-0.505V7.808
		c0.124,0.124,0.248,0.248,0.372,0.372c0.094,0.094,0.169,0.201,0.316,0.205c0.155,0.004,0.264-0.14,0.263-0.285
		c-0.001-0.097,0-0.195,0-0.292c0-0.135,0-0.27,0-0.406l0.478,0.478v0.715c0,0.107,0.086,0.193,0.193,0.193s0.193-0.086,0.193-0.193
		V8.267l0.286,0.286c0.038,0.038,0.087,0.057,0.137,0.057s0.099-0.019,0.137-0.057c0.075-0.075,0.075-0.198,0-0.273l-0.286-0.286
		h0.328c0.107,0,0.193-0.086,0.193-0.193s-0.086-0.193-0.193-0.193h-0.714L40.383,7.13c0.178,0,0.357,0,0.535,0
		c0.066,0,0.131,0,0.197,0c0.029,0,0.056-0.007,0.08-0.019c0.165-0.076,0.224-0.29,0.089-0.425l-0.515-0.515h0.676l0.505,0.505
		c0.038,0.038,0.087,0.057,0.137,0.057c0.049,0,0.099-0.019,0.137-0.057c0.075-0.075,0.075-0.198,0-0.273l-0.232-0.232h0.405
		c0.107,0,0.193-0.086,0.193-0.193S42.502,5.785,42.395,5.785z M39.132,4.721l0.573-0.572v0.798l-0.387,0.387
		c-0.058-0.032-0.119-0.058-0.185-0.074V4.721z M38.181,4.157l0.565,0.565v0.548c-0.065,0.019-0.126,0.045-0.183,0.079l-0.382-0.382
		V4.157z M37.11,5.24h0.798l0.388,0.388c-0.032,0.058-0.058,0.119-0.074,0.185h-0.539L37.11,5.24z M37.927,6.763h-0.809l0.564-0.565
		h0.548c0.019,0.065,0.045,0.126,0.079,0.183L37.927,6.763z M38.773,7.262L38.2,7.834V7.036l0.388-0.388
		c0.058,0.032,0.119,0.058,0.185,0.074V7.262z M38.952,6.36c-0.203,0-0.368-0.165-0.368-0.369s0.165-0.369,0.368-0.369
		c0.203,0,0.369,0.165,0.369,0.369S39.155,6.36,38.952,6.36z M39.723,7.826l-0.565-0.564V6.714c0.065-0.019,0.126-0.045,0.183-0.079
		l0.382,0.382V7.826z M40.795,6.744h-0.798l-0.387-0.387c0.032-0.058,0.058-0.119,0.074-0.185h0.539L40.795,6.744z M40.222,5.785
		h-0.548c-0.019-0.065-0.045-0.126-0.079-0.183l0.382-0.382h0.81L40.222,5.785z"/>
</g>
</svg>
