<?xml version="1.0" encoding="utf-8"?>
<!-- Generator: Adobe Illustrator 24.1.1, SVG Export Plug-In . SVG Version: 6.00 Build 0)  -->
<!DOCTYPE svg PUBLIC "-//W3C//DTD SVG 1.1//EN" "http://www.w3.org/Graphics/SVG/1.1/DTD/svg11.dtd" [
	<!ENTITY ns_extend "http://ns.adobe.com/Extensibility/1.0/">
	<!ENTITY ns_ai "http://ns.adobe.com/AdobeIllustrator/10.0/">
	<!ENTITY ns_graphs "http://ns.adobe.com/Graphs/1.0/">
	<!ENTITY ns_vars "http://ns.adobe.com/Variables/1.0/">
	<!ENTITY ns_imrep "http://ns.adobe.com/ImageReplacement/1.0/">
	<!ENTITY ns_sfw "http://ns.adobe.com/SaveForWeb/1.0/">
	<!ENTITY ns_custom "http://ns.adobe.com/GenericCustomNamespace/1.0/">
	<!ENTITY ns_adobe_xpath "http://ns.adobe.com/XPath/1.0/">
]>
<svg version="1.1" id="Layer_1" xmlns:x="&ns_extend;" xmlns:i="&ns_ai;" xmlns:graph="&ns_graphs;"
	 xmlns="http://www.w3.org/2000/svg" xmlns:xlink="http://www.w3.org/1999/xlink" x="0px" y="0px" viewBox="0 0 24 31"
	 style="enable-background:new 0 0 24 31;" xml:space="preserve">
<style type="text/css">
	.st0{fill:#8778DC;}
</style>
<metadata>
	<sfw  xmlns="&ns_sfw;">
		<slices></slices>
		<sliceSourceBounds  bottomLeftOrigin="true" height="21.72" width="21.72" x="1.14" y="1.73"></sliceSourceBounds>
	</sfw>
</metadata>
<path class="st0" d="M22.28,17.79h-1.21l0.69-0.69c0.23-0.23,0.23-0.59,0-0.82c-0.23-0.23-0.59-0.23-0.82,0l-1.51,1.51h-2.02
	c0,0,1.52-1.51,1.52-1.52c0.14-0.14,0.22-0.34,0.22-0.54c0-0.35-0.24-0.64-0.56-0.73c-0.06-0.03-0.13-0.04-0.22-0.04h-2.17
	l1.43-1.43h2.13c0.32,0,0.58-0.26,0.58-0.58s-0.26-0.58-0.58-0.58H18.8l0.85-0.85c0.23-0.23,0.23-0.59,0-0.82
	c-0.23-0.23-0.59-0.23-0.82,0l-0.85,0.85v-0.98c0-0.32-0.26-0.58-0.58-0.58s-0.58,0.26-0.58,0.58v2.13l-1.43,1.43
	c0-0.58,0-1.16,0-1.74c0-0.22,0.04-0.47-0.05-0.68c-0.21-0.47-0.88-0.67-1.27-0.28l-1.55,1.55v-2.02l1.51-1.51
	c0.23-0.23,0.23-0.59,0-0.82c-0.23-0.23-0.59-0.23-0.82,0l-0.69,0.69V8.12c0-0.32-0.26-0.58-0.58-0.58s-0.58,0.26-0.58,0.58v1.21
	l-0.69-0.69c-0.23-0.23-0.59-0.23-0.82,0c-0.23,0.22-0.23,0.59,0,0.82l1.51,1.51v2.02L9.9,11.49c-0.14-0.16-0.34-0.27-0.58-0.27
	c-0.4,0-0.78,0.37-0.78,0.78v2.19l-1.43-1.43v-2.13c0-0.32-0.26-0.58-0.58-0.58c-0.32,0-0.58,0.26-0.58,0.58v0.98l-0.85-0.85
	c-0.23-0.23-0.59-0.23-0.82,0c-0.23,0.23-0.23,0.59,0,0.82l0.85,0.85H4.17c-0.32,0-0.58,0.26-0.58,0.58c0,0.32,0.26,0.58,0.58,0.58
	H6.3l1.43,1.43c-0.16,0-1.82,0-2.03,0c-0.17,0-0.32,0-0.47,0.08c-0.26,0.13-0.42,0.39-0.42,0.68c0,0.26,0.15,0.48,0.32,0.66
	c0.12,0.12,0.24,0.24,0.36,0.36c0.27,0.27,1.08,1.08,1.08,1.08H4.56l-1.51-1.51c-0.23-0.23-0.59-0.23-0.82,0
	c-0.23,0.23-0.23,0.59,0,0.82l0.69,0.69H1.72c-0.32,0-0.58,0.26-0.58,0.58s0.26,0.58,0.58,0.58h1.21l-0.69,0.69
	c-0.23,0.23-0.23,0.59,0,0.82c0.11,0.11,0.26,0.17,0.41,0.17c0.15,0,0.3-0.06,0.41-0.17l1.51-1.51h2.02c-0.4,0.4-0.8,0.8-1.2,1.2
	c-0.16,0.16-0.36,0.31-0.45,0.51c-0.09,0.21-0.11,0.46-0.01,0.66c0.1,0.2,0.25,0.3,0.45,0.4c0.21,0.1,0.51,0.06,0.74,0.06
	c0.31,0,0.62,0,0.94,0c0.25,0,0.5,0,0.75,0l-1.43,1.43H4.22c-0.32,0-0.58,0.26-0.58,0.58c0,0.32,0.26,0.58,0.58,0.58H5.2L4.35,25.3
	c-0.23,0.23-0.23,0.59,0,0.82c0.11,0.11,0.26,0.17,0.41,0.17s0.3-0.06,0.41-0.17l0.85-0.85v0.98c0,0.32,0.26,0.58,0.58,0.58
	s0.58-0.26,0.58-0.58v-2.13l1.43-1.43v2.19c0,0.39,0.41,0.72,0.78,0.72c0.36,0,0.58-0.25,0.81-0.48c0.23-0.23,0.46-0.46,0.7-0.7
	c0.13-0.13,0.27-0.27,0.4-0.4c0.02-0.02,0.17-0.13,0.17-0.17v2.02l-1.51,1.51c-0.23,0.23-0.23,0.59,0,0.82
	c0.11,0.11,0.26,0.17,0.41,0.17s0.3-0.06,0.41-0.17l0.69-0.69v1.21c0,0.32,0.26,0.58,0.58,0.58s0.58-0.26,0.58-0.58v-1.21l0.69,0.69
	c0.11,0.11,0.26,0.17,0.41,0.17s0.3-0.06,0.41-0.17c0.23-0.23,0.23-0.59,0-0.82l-1.51-1.51v-2.02c0.37,0.37,0.74,0.74,1.11,1.11
	c0.28,0.28,0.51,0.6,0.94,0.61c0.46,0.01,0.79-0.42,0.78-0.85c0-0.29,0-0.58,0-0.87c0-0.4,0-0.81,0-1.21l1.43,1.43v2.13
	c0,0.32,0.26,0.58,0.58,0.58s0.58-0.26,0.58-0.58V25.2l0.85,0.85c0.11,0.11,0.26,0.17,0.41,0.17s0.3-0.06,0.41-0.17
	c0.23-0.23,0.23-0.59,0-0.82l-0.86-0.85h0.98c0.32,0,0.58-0.26,0.58-0.58c0-0.32-0.26-0.58-0.58-0.58H17.7l-1.43-1.43
	c0.53,0,1.07,0,1.6,0c0.2,0,0.39,0,0.59,0c0.09,0,0.17-0.02,0.24-0.06c0.49-0.23,0.67-0.87,0.27-1.27l-1.54-1.54h2.02l1.51,1.51
	c0.11,0.11,0.26,0.17,0.41,0.17s0.3-0.06,0.41-0.17c0.23-0.23,0.23-0.59,0-0.82l-0.69-0.69h1.21c0.32,0,0.58-0.26,0.58-0.58
	S22.6,17.79,22.28,17.79z M12.54,14.61l1.71-1.71v2.38l-1.16,1.16c-0.17-0.1-0.36-0.17-0.55-0.22V14.61z M9.7,12.93l1.69,1.69v1.64
	c-0.19,0.06-0.38,0.13-0.55,0.24L9.7,15.34V12.93z M6.5,16.16h2.38l1.16,1.16c-0.1,0.17-0.17,0.36-0.22,0.55H8.21L6.5,16.16z
	 M8.94,20.71H6.52l1.69-1.69h1.64c0.06,0.19,0.13,0.38,0.24,0.55L8.94,20.71z M11.46,22.2l-1.71,1.71v-2.38l1.16-1.16
	c0.17,0.1,0.36,0.17,0.55,0.22V22.2z M12,19.51c-0.61,0-1.1-0.49-1.1-1.1s0.49-1.1,1.1-1.1s1.1,0.49,1.1,1.1S12.61,19.51,12,19.51z
	 M14.3,23.88l-1.69-1.69v-1.64c0.19-0.06,0.38-0.13,0.55-0.24l1.14,1.14V23.88z M17.5,20.65h-2.38l-1.16-1.16
	c0.1-0.17,0.17-0.36,0.22-0.55h1.61L17.5,20.65z M15.79,17.79h-1.64c-0.06-0.19-0.13-0.38-0.24-0.55l1.14-1.14h2.42L15.79,17.79z"/>
</svg>
