<?xml version="1.0" encoding="utf-8"?>
<!-- Generator: Adobe Illustrator 24.0.2, SVG Export Plug-In . SVG Version: 6.00 Build 0)  -->
<svg version="1.1" id="Layer_1" xmlns="http://www.w3.org/2000/svg" xmlns:xlink="http://www.w3.org/1999/xlink" x="0px" y="0px"
	 viewBox="0 0 24 40" style="enable-background:new 0 0 24 40;" xml:space="preserve">
<style type="text/css">
	.st0{fill:#FFFFFF;}
</style>
<g id="Dashboard">
	<path class="st0" d="M20.3,31h-4.7c-1.5,0-2.7-1.2-2.7-2.7V11.7c0-1.5,1.2-2.7,2.7-2.7h4.7c1.5,0,2.7,1.2,2.7,2.7v16.6
		C23,29.8,21.8,31,20.3,31z M21,29L21,29L21,29L21,29z M14.9,11.7v16.6c0,0.4,0.3,0.7,0.7,0.7h4.7c0.4,0,0.7-0.3,0.7-0.7l0-16.6
		c0-0.4-0.3-0.7-0.7-0.7h-4.7C15.2,11,14.9,11.3,14.9,11.7z"/>
	<path class="st0" d="M8.1,31H3.7C2.2,31,1,29.8,1,28.2v-6.7c0-1.5,1.2-2.7,2.7-2.7h4.4c1.5,0,2.7,1.2,2.7,2.7v6.7
		C10.9,29.8,9.7,31,8.1,31z M8.9,29L8.9,29 M3,21.5v6.7C3,28.7,3.3,29,3.7,29h4.4c0.4,0,0.7-0.3,0.7-0.7l0-6.7
		c0-0.4-0.3-0.7-0.7-0.7H3.7C3.3,20.8,3,21.1,3,21.5z"/>
	<path class="st0" d="M8.3,17.2H3.6C2.2,17.2,1,16,1,14.6v-3C1,10.2,2.2,9,3.6,9h4.7c1.4,0,2.6,1.2,2.6,2.6v3
		C10.9,16,9.7,17.2,8.3,17.2z M8.9,15.2L8.9,15.2L8.9,15.2L8.9,15.2z M3,11.6v3c0,0.3,0.3,0.6,0.6,0.6h4.7c0.3,0,0.6-0.3,0.6-0.6
		l0-3c0-0.3-0.3-0.6-0.6-0.6H3.6C3.3,11,3,11.3,3,11.6z"/>
</g>
</svg>
