<?xml version="1.0" encoding="utf-8"?>
<!-- Generator: Adobe Illustrator 24.1.1, SVG Export Plug-In . SVG Version: 6.00 Build 0)  -->
<!DOCTYPE svg PUBLIC "-//W3C//DTD SVG 1.1//EN" "http://www.w3.org/Graphics/SVG/1.1/DTD/svg11.dtd" [
	<!ENTITY ns_extend "http://ns.adobe.com/Extensibility/1.0/">
	<!ENTITY ns_ai "http://ns.adobe.com/AdobeIllustrator/10.0/">
	<!ENTITY ns_graphs "http://ns.adobe.com/Graphs/1.0/">
	<!ENTITY ns_vars "http://ns.adobe.com/Variables/1.0/">
	<!ENTITY ns_imrep "http://ns.adobe.com/ImageReplacement/1.0/">
	<!ENTITY ns_sfw "http://ns.adobe.com/SaveForWeb/1.0/">
	<!ENTITY ns_custom "http://ns.adobe.com/GenericCustomNamespace/1.0/">
	<!ENTITY ns_adobe_xpath "http://ns.adobe.com/XPath/1.0/">
]>
<svg version="1.1" id="Layer_1" xmlns:x="&ns_extend;" xmlns:i="&ns_ai;" xmlns:graph="&ns_graphs;"
	 xmlns="http://www.w3.org/2000/svg" xmlns:xlink="http://www.w3.org/1999/xlink" x="0px" y="0px" viewBox="0 0 24 31"
	 style="enable-background:new 0 0 24 31;" xml:space="preserve">
<style type="text/css">
	.st0{fill:#8778DC;}
</style>
<metadata>
	<sfw  xmlns="&ns_sfw;">
		<slices></slices>
		<sliceSourceBounds  bottomLeftOrigin="true" height="21.842" width="21.842" x="1.079" y="1.579"></sliceSourceBounds>
	</sfw>
</metadata>
<desc>Created with Sketch.</desc>
<path class="st0" d="M22.341,17.879h-1.215l0.697-0.697c0.227-0.227,0.227-0.594,0-0.82s-0.594-0.227-0.82,0l-1.518,1.517h-2.031
	c0,0,1.524-1.523,1.53-1.53c0.142-0.142,0.226-0.346,0.226-0.547c0-0.355-0.242-0.642-0.566-0.736
	c-0.062-0.025-0.13-0.04-0.22-0.042h-2.187l1.436-1.436h2.145c0.321,0,0.58-0.259,0.58-0.58s-0.259-0.58-0.58-0.58h-0.985l0.86-0.86
	c0.227-0.227,0.227-0.594,0-0.82c-0.227-0.227-0.594-0.227-0.82,0l-0.86,0.86v-0.986c0-0.321-0.259-0.58-0.58-0.58
	c-0.321,0-0.58,0.259-0.58,0.58v2.146l-1.436,1.436c0-0.582,0-1.164,0-1.745c0-0.221,0.042-0.477-0.05-0.686
	c-0.208-0.474-0.883-0.673-1.274-0.282l-1.555,1.555v-2.031l1.518-1.518c0.227-0.227,0.227-0.594,0-0.82
	c-0.227-0.227-0.594-0.227-0.82,0l-0.698,0.698V8.159c0-0.321-0.259-0.58-0.58-0.58c-0.321,0-0.58,0.259-0.58,0.58v1.215
	l-0.697-0.697c-0.227-0.227-0.594-0.227-0.82,0c-0.227,0.226-0.227,0.594,0,0.82l1.517,1.518v2.03l-1.496-1.496
	c-0.143-0.162-0.346-0.269-0.578-0.269c-0.403,0-0.781,0.371-0.781,0.783v2.198l-1.435-1.435V10.68c0-0.321-0.259-0.58-0.58-0.58
	s-0.58,0.259-0.58,0.58v0.986l-0.86-0.86c-0.227-0.227-0.594-0.227-0.82,0c-0.227,0.227-0.227,0.594,0,0.82l0.86,0.86H4.122
	c-0.321,0-0.58,0.259-0.58,0.58s0.259,0.58,0.58,0.58h2.146l1.436,1.436c-0.158,0-1.83,0-2.043-0.001
	c-0.168,0-0.322,0.003-0.476,0.079c-0.258,0.128-0.419,0.396-0.419,0.683c0,0.259,0.147,0.485,0.324,0.662
	c0.121,0.122,0.243,0.244,0.364,0.365c0.27,0.27,1.09,1.09,1.09,1.09h-2.03l-1.518-1.517c-0.227-0.227-0.594-0.227-0.82,0
	c-0.227,0.227-0.227,0.594,0,0.82l0.697,0.697H1.659c-0.321,0-0.58,0.259-0.58,0.58c0,0.321,0.259,0.58,0.58,0.58h1.216
	l-0.697,0.697c-0.227,0.227-0.227,0.594,0,0.82c0.113,0.113,0.262,0.17,0.41,0.17c0.148,0,0.297-0.057,0.41-0.17l1.518-1.517h2.03
	c-0.403,0.403-0.806,0.806-1.209,1.209c-0.158,0.158-0.362,0.309-0.456,0.516c-0.095,0.209-0.107,0.46-0.007,0.668
	c0.096,0.202,0.255,0.306,0.448,0.4c0.213,0.104,0.51,0.061,0.742,0.061c0.314,0,0.628,0,0.942,0c0.252,0,0.504,0,0.755,0
	l-1.435,1.435H4.18c-0.321,0-0.58,0.259-0.58,0.58c0,0.321,0.259,0.58,0.58,0.58h0.987l-0.86,0.86c-0.227,0.227-0.227,0.594,0,0.82
	c0.113,0.113,0.262,0.17,0.41,0.17c0.148,0,0.297-0.057,0.41-0.17l0.86-0.86v0.987c0,0.321,0.259,0.58,0.58,0.58
	c0.321,0,0.58-0.259,0.58-0.58v-2.146l1.435-1.435v2.198c0,0.388,0.411,0.725,0.782,0.725c0.362,0,0.585-0.251,0.818-0.485
	c0.234-0.234,0.467-0.467,0.701-0.701c0.135-0.135,0.271-0.271,0.406-0.406c0.024-0.024,0.172-0.136,0.172-0.172v2.031l-1.517,1.517
	c-0.227,0.227-0.227,0.594,0,0.82c0.113,0.113,0.262,0.17,0.41,0.17s0.297-0.057,0.41-0.17l0.697-0.697v1.215
	c0,0.321,0.259,0.58,0.58,0.58c0.321,0,0.58-0.259,0.58-0.58v-1.216l0.698,0.697c0.113,0.113,0.262,0.17,0.41,0.17
	s0.297-0.057,0.41-0.17c0.227-0.227,0.227-0.594,0-0.82l-1.518-1.517v-2.031c0.373,0.373,0.746,0.745,1.118,1.118
	c0.283,0.283,0.508,0.605,0.948,0.616c0.466,0.012,0.792-0.421,0.789-0.855c-0.002-0.292,0-0.585,0-0.877c0-0.406,0-0.812,0-1.218
	l1.436,1.436v2.146c0,0.321,0.259,0.58,0.58,0.58c0.321,0,0.58-0.259,0.58-0.58v-0.986l0.86,0.86c0.113,0.113,0.262,0.17,0.41,0.17
	s0.297-0.057,0.41-0.17c0.227-0.227,0.227-0.594,0-0.82l-0.86-0.86h0.986c0.321,0,0.58-0.259,0.58-0.58
	c0-0.321-0.259-0.58-0.58-0.58h-2.146l-1.435-1.435c0.536,0,1.071,0,1.607,0c0.197,0,0.394,0,0.591,0
	c0.087,0,0.167-0.022,0.241-0.056c0.494-0.228,0.672-0.871,0.267-1.276l-1.548-1.548h2.031l1.518,1.517
	c0.113,0.113,0.262,0.17,0.41,0.17s0.297-0.057,0.41-0.17c0.227-0.227,0.227-0.594,0-0.82l-0.697-0.697h1.215
	c0.321,0,0.58-0.259,0.58-0.58C22.921,18.139,22.662,17.879,22.341,17.879z M12.539,14.685l1.719-1.719v2.398l-1.164,1.163
	c-0.174-0.097-0.358-0.174-0.556-0.222V14.685z M9.684,12.989l1.696,1.696v1.645c-0.195,0.056-0.379,0.135-0.549,0.238l-1.147-1.147
	V12.989z M6.466,16.241h2.398l1.164,1.164c-0.097,0.173-0.174,0.358-0.222,0.555h-1.62L6.466,16.241z M8.921,20.816H6.49
	l1.695-1.696h1.646c0.056,0.195,0.134,0.379,0.238,0.549L8.921,20.816z M11.461,22.315l-1.719,1.719v-2.398l1.164-1.164
	c0.174,0.097,0.358,0.174,0.556,0.222V22.315z M12,19.607c-0.611,0-1.107-0.497-1.107-1.107s0.496-1.107,1.107-1.107
	s1.108,0.497,1.108,1.107S12.611,19.607,12,19.607z M14.316,24.01l-1.696-1.695V20.67c0.195-0.056,0.379-0.135,0.549-0.238
	l1.146,1.146V24.01z M17.534,20.759h-2.398l-1.164-1.163c0.097-0.174,0.174-0.358,0.223-0.556h1.619L17.534,20.759z M15.815,17.879
	H14.17c-0.056-0.195-0.135-0.379-0.238-0.549l1.146-1.146h2.432L15.815,17.879z"/>
</svg>
