<?xml version="1.0" encoding="utf-8"?>
<!-- Generator: Adobe Illustrator 24.2.1, SVG Export Plug-In . SVG Version: 6.00 Build 0)  -->
<!DOCTYPE svg PUBLIC "-//W3C//DTD SVG 1.1//EN" "http://www.w3.org/Graphics/SVG/1.1/DTD/svg11.dtd" [
	<!ENTITY ns_extend "http://ns.adobe.com/Extensibility/1.0/">
	<!ENTITY ns_ai "http://ns.adobe.com/AdobeIllustrator/10.0/">
	<!ENTITY ns_graphs "http://ns.adobe.com/Graphs/1.0/">
	<!ENTITY ns_vars "http://ns.adobe.com/Variables/1.0/">
	<!ENTITY ns_imrep "http://ns.adobe.com/ImageReplacement/1.0/">
	<!ENTITY ns_sfw "http://ns.adobe.com/SaveForWeb/1.0/">
	<!ENTITY ns_custom "http://ns.adobe.com/GenericCustomNamespace/1.0/">
	<!ENTITY ns_adobe_xpath "http://ns.adobe.com/XPath/1.0/">
]>
<svg version="1.1" id="Layer_1" xmlns:x="&ns_extend;" xmlns:i="&ns_ai;" xmlns:graph="&ns_graphs;"
	 xmlns="http://www.w3.org/2000/svg" xmlns:xlink="http://www.w3.org/1999/xlink" x="0px" y="0px" viewBox="0 0 24 40"
	 style="enable-background:new 0 0 24 40;" xml:space="preserve">
<style type="text/css">
	.st0{opacity:0.74;}
	.st1{fill:#FFFFFF;}
</style>
<metadata>
	<sfw  xmlns="&ns_sfw;">
		<slices></slices>
		<sliceSourceBounds  bottomLeftOrigin="true" height="26.9" width="23.9" x="0.1" y="6.6"></sliceSourceBounds>
	</sfw>
</metadata>
<g class="st0">
	<g>
		<path class="st1" d="M23.9,9.3C23.8,9.1,23.6,9,23.5,9h-6.7C15.7,7.5,14,6.5,12,6.5S8.3,7.5,7.2,9H0.5C0.4,9,0.2,9.1,0.1,9.3
			s0,0.3,0.1,0.5L2,11.3l0.6,1c0.1,0.1,0.2,0.2,0.4,0.2h1.7v1.7H2.5c-0.2,0-0.4,0.2-0.4,0.4v1.5c0,0.2,0.2,0.4,0.4,0.4h2.1v2.1
			L3.8,31.4l-1,1.4c-0.1,0.1-0.1,0.3,0,0.4c0.1,0.1,0.2,0.2,0.4,0.2H7c0.2,0,0.4-0.2,0.4-0.4v-1.5V18.6v-2.1H8
			c1.1,1,2.5,1.7,4.1,1.7s3-0.6,4.1-1.7h0.6v2.1v12.9V33c0,0.2,0.2,0.4,0.4,0.4H21c0.2,0,0.3-0.1,0.4-0.2c0.1-0.1,0.1-0.3,0-0.4
			l-1-1.4l-0.8-12.8v-2.1h2.1c0.2,0,0.4-0.2,0.4-0.4v-1.5c0-0.2-0.2-0.4-0.4-0.4h-2.1v-1.7h1.7c0.1,0,0.3-0.1,0.4-0.2l0.6-1L24,9.7
			C23.9,9.6,23.9,9.4,23.9,9.3z M12,17c-2.6,0-4.6-2.1-4.6-4.6c0-2.6,2.1-4.6,4.6-4.6c2.6,0,4.6,2.1,4.6,4.6S14.6,17,12,17z"/>
	</g>
	<g>
		<g>
			<path class="st1" d="M12,10.6L12,10.6L12,10.6L12,10.6c0.5,0,0.9,0.2,1.2,0.5c0.2,0.2,0.3,0.4,0.4,0.6l0.8-0.8
				c0.1-0.1,0.1-0.1,0.2-0.2c0.1-0.1,0.1-0.2,0.1-0.3c0-0.4-0.3-0.7-0.7-0.7H9.4v1.4H11C11.2,10.8,11.6,10.6,12,10.6z"/>
			<path class="st1" d="M12,11.4L12,11.4c-0.5,0-0.9,0.4-0.9,0.9s0.4,0.9,0.9,0.9l0,0c0.5,0,0.9-0.4,0.9-0.9
				C12.9,11.8,12.5,11.4,12,11.4z"/>
			<path class="st1" d="M12,14c-0.7,0-1.3-0.5-1.6-1.1l-0.9,0.9c-0.1,0.1-0.1,0.1-0.2,0.2c-0.1,0.1-0.1,0.2-0.1,0.3
				c0,0.4,0.3,0.7,0.7,0.7h4.6v-1.4H13C12.8,13.9,12.5,14,12,14z"/>
		</g>
	</g>
</g>
</svg>
