<?xml version="1.0" encoding="utf-8"?>
<!-- Generator: Adobe Illustrator 24.0.2, SVG Export Plug-In . SVG Version: 6.00 Build 0)  -->
<svg version="1.1" id="Layer_1" xmlns="http://www.w3.org/2000/svg" xmlns:xlink="http://www.w3.org/1999/xlink" x="0px" y="0px"
	 viewBox="0 0 28 24" style="enable-background:new 0 0 28 24;" xml:space="preserve">
<style type="text/css">
	.st0{fill:#FFFFFF;}
</style>
<path class="st0" d="M20.4,9.8C20.4,9.8,20.4,9.8,20.4,9.8c-0.1,0-0.2-0.1-0.2-0.2V8.5c0-1-0.2-1.9-0.6-2.8c0,0,0,0,0,0c0,0,0,0,0,0
	c0,0,0-0.1-0.1-0.1c-0.1-0.3-0.3-0.6-0.5-0.9c0,0,0,0,0-0.1c0,0,0-0.1-0.1-0.1c-0.9-1.2-2.2-2.1-3.6-2.4c-0.2,0-0.4-0.1-0.6-0.1
	c-0.6-0.1-1.3-0.1-2,0c-2.9,0.6-5,3.4-5,6.4v1.1c0,0.1-0.1,0.2-0.2,0.2c-1,0.2-1.7,0.9-1.7,2V20c0,1,0.8,1.9,1.8,2c0,0,0,0,0,0
	c0.1,0,0.3,0,0.4,0h11.8c1.2,0,2.2-1,2.2-2.2v-8C22.1,10.7,21.4,10,20.4,9.8z M11.1,5.2c1-1,2.4-1.4,3.9-1c1.9,0.5,3.1,2.3,3.1,4.3
	v1c0,0.1-0.1,0.2-0.2,0.2h-7.9c-0.1,0-0.2-0.1-0.2-0.2V8.4C9.8,7.2,10.3,6,11.1,5.2z M19.7,20.1H8.3c-0.1,0-0.2-0.1-0.2-0.2v-7.8
	c0-0.1,0.1-0.2,0.2-0.2h11.4c0.1,0,0.2,0.1,0.2,0.2v7.8C19.9,20,19.8,20.1,19.7,20.1z"/>
</svg>
