<?xml version="1.0" encoding="utf-8"?>
<!-- Generator: Adobe Illustrator 24.1.1, SVG Export Plug-In . SVG Version: 6.00 Build 0)  -->
<!DOCTYPE svg PUBLIC "-//W3C//DTD SVG 1.1//EN" "http://www.w3.org/Graphics/SVG/1.1/DTD/svg11.dtd" [
	<!ENTITY ns_extend "http://ns.adobe.com/Extensibility/1.0/">
	<!ENTITY ns_ai "http://ns.adobe.com/AdobeIllustrator/10.0/">
	<!ENTITY ns_graphs "http://ns.adobe.com/Graphs/1.0/">
	<!ENTITY ns_vars "http://ns.adobe.com/Variables/1.0/">
	<!ENTITY ns_imrep "http://ns.adobe.com/ImageReplacement/1.0/">
	<!ENTITY ns_sfw "http://ns.adobe.com/SaveForWeb/1.0/">
	<!ENTITY ns_custom "http://ns.adobe.com/GenericCustomNamespace/1.0/">
	<!ENTITY ns_adobe_xpath "http://ns.adobe.com/XPath/1.0/">
]>
<svg version="1.1" id="Layer_1" xmlns:x="&ns_extend;" xmlns:i="&ns_ai;" xmlns:graph="&ns_graphs;"
	 xmlns="http://www.w3.org/2000/svg" xmlns:xlink="http://www.w3.org/1999/xlink" x="0px" y="0px" viewBox="0 0 49 60"
	 style="enable-background:new 0 0 49 60;" xml:space="preserve">
<style type="text/css">
	.st0{fill:#FFFFFF;}
</style>
<metadata>
	<sfw  xmlns="&ns_sfw;">
		<slices></slices>
		<sliceSourceBounds  bottomLeftOrigin="true" height="48.5" width="48.5" x="0.2" y="5.7"></sliceSourceBounds>
	</sfw>
</metadata>
<g>
	<path class="st0" d="M24.5,54.3c13.4,0,24.3-10.9,24.3-24.3c0-13.4-10.9-24.3-24.3-24.3C11.1,5.7,0.2,16.6,0.2,30
		C0.2,43.4,11.1,54.3,24.5,54.3z M24.5,10.9c10.5,0,19.1,8.6,19.1,19.1c0,10.5-8.6,19.1-19.1,19.1C14,49.1,5.4,40.5,5.4,30
		C5.4,19.5,14,10.9,24.5,10.9z"/>
	<path class="st0" d="M24.7,22.9L24.7,22.9L24.7,22.9L24.7,22.9c1.9,0,3.7,0.7,5,2.1c0.7,0.7,1.2,1.5,1.5,2.3l3.2-3.2
		c0.3-0.3,0.5-0.6,0.7-0.9c0.2-0.4,0.4-0.9,0.4-1.4c0-1.6-1.3-2.8-2.8-2.8l-19.3,0v5.7l6.7,0C21.3,23.5,22.9,22.9,24.7,22.9z"/>
	<path class="st0" d="M24.7,33.7c2.1,0,3.7-1.7,3.7-3.7c0-2.1-1.7-3.7-3.7-3.7h0c-2.1,0-3.7,1.7-3.7,3.7C21,32,22.6,33.7,24.7,33.7
		C24.7,33.7,24.7,33.7,24.7,33.7z"/>
	<path class="st0" d="M24.7,37c-3,0-5.6-1.9-6.6-4.6L14.5,36c-0.3,0.3-0.5,0.6-0.7,0.9c-0.2,0.4-0.4,0.9-0.4,1.4
		c0,1.6,1.3,2.8,2.8,2.8l19.2,0l0-5.7l-6.4,0C27.9,36.4,26.4,37,24.7,37z"/>
</g>
</svg>
