<?xml version="1.0" encoding="UTF-8" standalone="no"?>
<!DOCTYPE svg PUBLIC "-//W3C//DTD SVG 1.1//EN" "http://www.w3.org/Graphics/SVG/1.1/DTD/svg11.dtd">
<svg version="1.1" xmlns="http://www.w3.org/2000/svg" xmlns:xlink="http://www.w3.org/1999/xlink" preserveAspectRatio="xMidYMid meet" viewBox="0 0 640 640" width="640" height="640"><defs><path d="M25.14 320.11C25.14 481.81 156.69 613.36 318.39 613.36C480.09 613.36 611.64 481.81 611.64 320.11C611.64 158.41 480.09 26.86 318.39 26.86C156.69 26.86 25.14 158.41 25.14 320.11ZM87.32 320.11C87.32 192.7 190.97 89.04 318.39 89.04C445.8 89.04 549.45 192.7 549.45 320.11C549.45 447.53 445.8 551.18 318.39 551.18C190.97 551.18 87.32 447.53 87.32 320.11Z" id="b1phM8ebFX"></path><path d="M320.88 233.93L320.9 233.93C320.9 233.93 320.9 233.93 320.9 233.93C343.67 233.94 365.07 242.82 381.18 258.94C389.35 267.11 395.63 276.65 399.86 287.04C403.75 283.15 434.85 252.02 438.74 248.13C442.35 244.52 445.05 240.9 446.93 237.28C449.89 232.24 451.61 226.38 451.61 220.12C451.61 201.31 436.37 186.07 417.58 186.07C402.05 186.09 324.38 186.17 184.59 186.31L184.59 254.84C232.87 254.82 259.7 254.81 265.06 254.81C280.03 241.82 299.54 233.93 320.86 233.93C320.86 233.93 320.87 233.93 320.88 233.93Z" id="a1WWNZeI2"></path><path d="M320.86 273.92C295.86 273.92 275.6 294.19 275.59 319.17C275.57 344.18 295.84 364.46 320.84 364.47C320.84 364.47 320.86 364.47 320.86 364.47C345.86 364.47 366.12 344.21 366.13 319.21C366.14 294.22 345.88 273.93 320.88 273.92C320.88 273.92 320.87 273.92 320.86 273.92Z" id="d1vyCIUOyW"></path><path d="M241.01 349.07C236.71 353.37 202.34 387.79 198.04 392.1C194.44 395.7 191.73 399.32 189.84 402.95C186.89 407.99 185.16 413.84 185.16 420.12C185.16 438.91 200.41 454.15 219.21 454.15C234.68 454.13 312.07 454.05 451.37 453.91L451.47 385.37C405.29 385.39 379.64 385.4 374.51 385.41C359.82 397.31 341.15 404.47 320.81 404.47C284.32 404.44 253.14 381.38 241.01 349.07Z" id="dyETiWXBt"></path></defs><g><g><g><use xlink:href="#b1phM8ebFX" opacity="1" fill="#ffffff" fill-opacity="1"></use><g><use xlink:href="#b1phM8ebFX" opacity="1" fill-opacity="0" stroke="#000000" stroke-width="1" stroke-opacity="0"></use></g></g><g><use xlink:href="#a1WWNZeI2" opacity="1" fill="#ffffff" fill-opacity="1"></use><g><use xlink:href="#a1WWNZeI2" opacity="1" fill-opacity="0" stroke="#000000" stroke-width="1" stroke-opacity="0"></use></g></g><g><use xlink:href="#d1vyCIUOyW" opacity="1" fill="#ffffff" fill-opacity="1"></use><g><use xlink:href="#d1vyCIUOyW" opacity="1" fill-opacity="0" stroke="#000000" stroke-width="1" stroke-opacity="0"></use></g></g><g><use xlink:href="#dyETiWXBt" opacity="1" fill="#ffffff" fill-opacity="1"></use><g><use xlink:href="#dyETiWXBt" opacity="1" fill-opacity="0" stroke="#000000" stroke-width="1" stroke-opacity="0"></use></g></g></g></g></svg>