<?xml version="1.0" encoding="utf-8"?>
<!-- Generator: Adobe Illustrator 24.1.1, SVG Export Plug-In . SVG Version: 6.00 Build 0)  -->
<!DOCTYPE svg PUBLIC "-//W3C//DTD SVG 1.1//EN" "http://www.w3.org/Graphics/SVG/1.1/DTD/svg11.dtd" [
	<!ENTITY ns_extend "http://ns.adobe.com/Extensibility/1.0/">
	<!ENTITY ns_ai "http://ns.adobe.com/AdobeIllustrator/10.0/">
	<!ENTITY ns_graphs "http://ns.adobe.com/Graphs/1.0/">
	<!ENTITY ns_vars "http://ns.adobe.com/Variables/1.0/">
	<!ENTITY ns_imrep "http://ns.adobe.com/ImageReplacement/1.0/">
	<!ENTITY ns_sfw "http://ns.adobe.com/SaveForWeb/1.0/">
	<!ENTITY ns_custom "http://ns.adobe.com/GenericCustomNamespace/1.0/">
	<!ENTITY ns_adobe_xpath "http://ns.adobe.com/XPath/1.0/">
]>
<svg version="1.1" id="Layer_1" xmlns:x="&ns_extend;" xmlns:i="&ns_ai;" xmlns:graph="&ns_graphs;"
	 xmlns="http://www.w3.org/2000/svg" xmlns:xlink="http://www.w3.org/1999/xlink" x="0px" y="0px" viewBox="0 0 300 100"
	 style="enable-background:new 0 0 300 100;" xml:space="preserve">
<style type="text/css">
	.st0{fill:#FFFFFF;}
	.st1{fill:url(#SVGID_1_);}
	.st2{fill:url(#SVGID_2_);}
	.st3{fill:url(#SVGID_3_);}
	.st4{fill:url(#SVGID_4_);}
</style>
<metadata>
	<sfw  xmlns="&ns_sfw;">
		<slices></slices>
		<sliceSourceBounds  bottomLeftOrigin="true" height="98.2" width="274.2" x="12.9" y="0.9"></sliceSourceBounds>
	</sfw>
</metadata>
<desc>Created with Sketch.</desc>
<g>
	<g>
		<path class="st0" d="M62,0.9C62,0.9,62,0.9,62,0.9c-27.1,0-49.1,22-49.1,49.1c0,27.1,22,49.1,49.1,49.1c0,0,0,0,0,0
			c27.1,0,49.1-22,49.1-49.1C111.1,22.9,89.1,0.9,62,0.9z"/>
		<g>
			<g>
				<linearGradient id="SVGID_1_" gradientUnits="userSpaceOnUse" x1="62.0024" y1="87.9742" x2="62.0024" y2="14.8112">
					<stop  offset="0" style="stop-color:#00D3D5"/>
					<stop  offset="1" style="stop-color:#8778DC"/>
				</linearGradient>
				<path class="st1" d="M62,3.4C36.3,3.4,15.4,24.3,15.4,50c0,25.7,20.9,46.6,46.6,46.6c25.7,0,46.6-20.9,46.6-46.6
					C108.6,24.3,87.7,3.4,62,3.4z M62,86.7c-20.2,0-36.7-16.5-36.7-36.7c0-20.2,16.5-36.7,36.7-36.7c20.2,0,36.7,16.5,36.7,36.7
					C98.7,70.2,82.3,86.7,62,86.7z"/>
			</g>
			<linearGradient id="SVGID_2_" gradientUnits="userSpaceOnUse" x1="61.9568" y1="86.2487" x2="61.9568" y2="14.4462">
				<stop  offset="0" style="stop-color:#00D3D5"/>
				<stop  offset="1" style="stop-color:#8778DC"/>
			</linearGradient>
			<path class="st2" d="M62.4,36.3L62.4,36.3L62.4,36.3L62.4,36.3c3.6,0,7,1.4,9.6,4c1.3,1.3,2.3,2.8,3,4.5l6.2-6.2
				c0.6-0.6,1-1.1,1.3-1.7c0.5-0.8,0.7-1.7,0.7-2.7c0-3-2.4-5.4-5.4-5.4l-37,0v10.9l12.8,0C55.9,37.6,59,36.3,62.4,36.3z"/>
			<linearGradient id="SVGID_3_" gradientUnits="userSpaceOnUse" x1="62.3952" y1="86.2487" x2="62.3952" y2="14.4462">
				<stop  offset="0" style="stop-color:#00D3D5"/>
				<stop  offset="1" style="stop-color:#8778DC"/>
			</linearGradient>
			<path class="st3" d="M62.4,42.7C62.4,42.7,62.4,42.7,62.4,42.7c-4,0-7.2,3.2-7.2,7.2c0,4,3.2,7.2,7.2,7.2c0,0,0,0,0,0
				c4,0,7.2-3.2,7.2-7.2C69.6,45.9,66.4,42.7,62.4,42.7z"/>
			<linearGradient id="SVGID_4_" gradientUnits="userSpaceOnUse" x1="61.9913" y1="86.2487" x2="61.9913" y2="14.4462">
				<stop  offset="0" style="stop-color:#00D3D5"/>
				<stop  offset="1" style="stop-color:#8778DC"/>
			</linearGradient>
			<path class="st4" d="M62.4,63.4c-5.8,0-10.8-3.7-12.7-8.8l-6.8,6.8c-0.6,0.6-1,1.1-1.3,1.7c-0.5,0.8-0.7,1.7-0.7,2.7
				c0,3,2.4,5.4,5.4,5.4l36.9,0l0-10.9l-12.2,0C68.6,62.3,65.6,63.4,62.4,63.4z"/>
		</g>
	</g>
	<g>
		<path class="st0" d="M131.5,65.7c-0.2,0.7,0.2,1.1,0.8,1.1h11.8l-1.4,3.1c-0.3,0.6-0.9,1.2-2.3,1.2h-15.8L137,34.2
			c0.1-0.5-0.1-1-0.8-1h-4.9c-1.4,0-2.1-0.7-2.4-1.2c-0.2-0.4-0.9-2.1-1.4-3.1H144L131.5,65.7z"/>
		<path class="st0" d="M179.8,66.9c-0.5,1.1-1.2,2.8-1.4,3.1c-0.3,0.5-1,1.1-2.4,1.1h-9.7V30.1c0.1-0.7,0.6-1.2,1.3-1.2H179
			l-1.5,3.1c-0.2,0.5-0.9,1.2-2.3,1.2h-3.5c-0.6,0-1,0.4-1,1v12.6h6.5c-0.5,1.1-1.2,2.8-1.4,3.2c-0.3,0.5-0.9,1.1-2.3,1.1h-1.8
			c-0.5,0-1,0.5-1,1v14.7H179.8z"/>
		<path class="st0" d="M214.5,71.2h-2c-2.4,0-2.7-1.9-2.9-2.7l-4.7-20.9v23.6h-4.4V28.8h2c2.4,0,2.8,1.1,3.1,2.4l4.5,22V28.8h4.4
			V71.2z"/>
		<path class="st0" d="M240.3,65.7c-0.2,0.7,0.2,1.1,0.8,1.1h11.8l-1.4,3.1c-0.3,0.6-0.9,1.2-2.3,1.2h-15.8l12.5-36.9
			c0.1-0.5-0.1-1-0.8-1h-4.9c-1.4,0-2.1-0.7-2.4-1.2c-0.2-0.4-0.9-2.1-1.4-3.1h16.4L240.3,65.7z"/>
		<path class="st0" d="M281.8,28.4c2.9,0.1,5.3,2.5,5.3,5.4v32.5c-0.1,2.9-2.4,5.2-5.3,5.3h-3.3c-3,0-5.4-2.4-5.4-5.3V33.8
			c0-3,2.4-5.4,5.4-5.4H281.8z M280.4,67.8c1.3,0,2.3-1,2.3-2.4V34.6c0-1.3-1-2.4-2.3-2.4h-0.7c-1.3,0.1-2.3,1.1-2.3,2.4v30.8
			c0,1.3,1,2.3,2.3,2.4H280.4z"/>
	</g>
</g>
</svg>
